<svg width="48px" height="17px" viewBox="0 0 48 17" version="1.1"
  xmlns="http://www.w3.org/2000/svg"
  xmlns:xlink="http://www.w3.org/1999/xlink">
  <g fill="#545454">
    <polygon points="23.9751 7.6181 16.4141 0.0581 15.7651 0.7081 23.3251 8.2681 15.7651 15.8281 16.4141 16.4781 23.9751 8.9171 31.5351 16.4781 32.1841 15.8281 24.6241 8.2681 32.1841 0.7081 31.5351 0.0581"/>
    <path d="M8.3052,-0.0004 L0.0002,8.3046 L8.1202,16.4246 L16.4242,8.1196 L8.3052,-0.0004 Z M1.2992,8.3046 L8.3052,1.2996 L14.6812,7.6766 L8.3192,7.6766 L8.3192,8.5946 L14.6502,8.5946 L8.1202,15.1246 L1.2992,8.3046 Z"/>
    <polygon points="31.5396 8.3813 39.6596 16.5013 47.4126 8.7483 46.1136 8.7483 39.6596 15.2013 32.8396 8.3813 39.8446 1.3753 46.1456 7.6763 47.4446 7.6763 39.8446 0.0763"/>
  </g>
</svg>
